<svg width="385" height="359" viewBox="0 0 385 359" fill="none" xmlns="http://www.w3.org/2000/svg">
<g clip-path="url(#clip0_389_68)">
<path d="M118.909 179.5C97.2526 180.168 79.5399 188.716 65.7708 205.143H38.901C27.9392 205.143 18.7153 202.438 11.2292 197.029C3.74306 191.62 0 183.707 0 173.29C0 126.144 8.28819 102.572 24.8646 102.572C25.6667 102.572 28.5742 103.974 33.5872 106.779C38.6003 109.583 45.1172 112.421 53.138 115.293C61.1589 118.164 69.1128 119.6 77 119.6C85.9566 119.6 94.8464 118.064 103.669 114.992C103.001 119.934 102.667 124.341 102.667 128.214C102.667 146.779 108.081 163.874 118.909 179.5ZM333.667 307.113C333.667 323.14 328.787 335.795 319.029 345.077C309.27 354.359 296.303 359 280.128 359H104.872C88.697 359 75.73 354.359 65.9714 345.077C56.2127 335.795 51.3333 323.14 51.3333 307.113C51.3333 300.035 51.5673 293.123 52.0352 286.379C52.503 279.634 53.4388 272.355 54.8424 264.542C56.2461 256.729 58.0174 249.484 60.1562 242.806C62.2951 236.128 65.1693 229.617 68.7786 223.273C72.388 216.929 76.5321 211.52 81.2109 207.046C85.8898 202.572 91.6046 198.999 98.3555 196.328C105.106 193.657 112.559 192.322 120.714 192.322C122.05 192.322 124.924 193.757 129.336 196.629C133.747 199.5 138.627 202.706 143.974 206.245C149.321 209.784 156.473 212.989 165.43 215.861C174.386 218.732 183.41 220.168 192.5 220.168C201.59 220.168 210.614 218.732 219.57 215.861C228.527 212.989 235.679 209.784 241.026 206.245C246.373 202.706 251.253 199.5 255.664 196.629C260.076 193.757 262.95 192.322 264.286 192.322C272.441 192.322 279.894 193.657 286.645 196.328C293.395 198.999 299.11 202.572 303.789 207.046C308.468 211.52 312.612 216.929 316.221 223.273C319.831 229.617 322.705 236.128 324.844 242.806C326.983 249.484 328.754 256.729 330.158 264.542C331.561 272.355 332.497 279.634 332.965 286.379C333.433 293.123 333.667 300.035 333.667 307.113Z" fill="white"/>
<path d="M128.333 51.2857C128.333 65.4427 123.32 77.5296 113.294 87.5463C103.268 97.5631 91.17 102.571 76.9998 102.571C62.8297 102.571 50.7316 97.5631 40.7056 87.5463C30.6795 77.5296 25.6665 65.4427 25.6665 51.2857C25.6665 37.1287 30.6795 25.0419 40.7056 15.0251C50.7316 5.00837 62.8297 0 76.9998 0C91.17 0 103.268 5.00837 113.294 15.0251C123.32 25.0419 128.333 37.1287 128.333 51.2857ZM269.5 128.214C269.5 149.45 261.98 167.58 246.941 182.605C231.902 197.63 213.755 205.143 192.5 205.143C171.245 205.143 153.097 197.63 138.058 182.605C123.019 167.58 115.5 149.45 115.5 128.214C115.5 106.979 123.019 88.8485 138.058 73.8234C153.097 58.7983 171.245 51.2857 192.5 51.2857C213.755 51.2857 231.902 58.7983 246.941 73.8234C261.98 88.8485 269.5 106.979 269.5 128.214ZM385 173.29C385 183.707 381.257 191.62 373.771 197.029C366.285 202.438 357.061 205.143 346.099 205.143H319.229C305.46 188.715 287.747 180.168 266.091 179.5C276.919 163.874 282.333 146.779 282.333 128.214C282.333 124.341 281.999 119.934 281.331 114.992C290.153 118.064 299.043 119.6 308 119.6C315.887 119.6 323.841 118.164 331.862 115.293C339.883 112.421 346.4 109.583 351.413 106.778C356.426 103.974 359.333 102.571 360.135 102.571C376.712 102.571 385 126.144 385 173.29ZM359.333 51.2857C359.333 65.4427 354.32 77.5296 344.294 87.5463C334.268 97.5631 322.17 102.571 308 102.571C293.83 102.571 281.732 97.5631 271.706 87.5463C261.68 77.5296 256.667 65.4427 256.667 51.2857C256.667 37.1287 261.68 25.0419 271.706 15.0251C281.732 5.00837 293.83 0 308 0C322.17 0 334.268 5.00837 344.294 15.0251C354.32 25.0419 359.333 37.1287 359.333 51.2857Z" fill="white"/>
</g>
<defs>
<clipPath id="clip0_389_68">
<rect width="385" height="359" fill="white"/>
</clipPath>
</defs>
</svg>
